General
Complete name                    : WILLY DeVILLE - UNPLUGGED-(Y)(°U°).mkv
Format                           : Matroska
File size                        : 1.20 GiB
Duration                         : 1h 21mn
Overall bit rate                 : 2 125 Kbps
Movie name                       : VTS_02_1
Encoded date                     : UTC 2010-09-24 11:01:28
Writing application              : mkvmerge v4.1.1 ('Bouncin' Back') built on Jul  3 2010 22:54:08
Writing library                  : libebml v1.0.0 + libmatroska v1.0.0

Video
ID                               : 1
Format                           : AVC
Format/Info                      : Advanced Video Codec
Format profile                   : High@L4.1
Format settings, CABAC           : Yes
Format settings, ReFrames        : 10 frames
Format settings, GOP             : M=4, N=10
Muxing mode                      : Container profile=Unknown@4.1
Codec ID                         : V_MPEG4/ISO/AVC
Duration                         : 1h 21mn
Bit rate                         : 1 900 Kbps
Width                            : 960 pixels
Height                           : 720 pixels
Display aspect ratio             : 4:3
Frame rate                       : 25.000 fps
Color space                      : YUV
Chroma subsampling               : 4:2:0
Bit depth                        : 8 bits
Scan type                        : Progressive
Bits/(Pixel*Frame)               : 0.110
Stream size                      : 1.05 GiB (87%)
Writing library                  : x264 core 104 r1683 62997d6

Audio
ID                               : 2
Format                           : AC-3
Format/Info                      : Audio Coding 3
Mode extension                   : CM (complete main)
Codec ID                         : A_AC3
Duration                         : 1h 21mn
Bit rate mode                    : Constant
Bit rate                         : 224 Kbps
Channel(s)                       : 2 channels
Channel positions                : Front: L R
Sampling rate                    : 48.0 KHz
Bit depth                        : 16 bits
Stream size                      : 130 MiB (11%)

Menu
00:00:00.000                     : 01 Betty And Dupree
00:04:15.360                     : 02 It´s Too Late She´s Gone
00:08:36.960                     : 03 Spanish Harlem
00:12:40.320                     : 04 Trouble In Mind
00:16:42.240                     : 05 Storybook Love
00:22:01.920                     : 06 Big Blue Diamond
00:28:04.800                     : 07 Shake Sugaree
00:33:27.840                     : 08 Let It Be Me
00:38:18.720                     : 09 Broken Heart
00:43:45.120                     : 10 Hound Dog
00:47:46.560                     : 11 Junkers Blues
00:51:39.360                     : 12 You Better Move On
00:55:50.400                     : 13 Since I Met You Baby
01:01:24.000                     : 14 Blue So Blue
01:06:20.160                     : 15 Keep A Knockin´/Sea Cruise
01:10:24.000                     : 16 Shake Rattle And Roll
01:15:58.080                     : 17 Heaven Stood Still

Source                           : WILLY DeVILLE - THE BERLIN CONCERTS 2002 
                                   DVD-1
                                   WILLY DeVILLE - UNPLUGGED

General
Complete name                    : WILLY DeVILLE - LIVE AT THE METROPOL-(Y)(°U°).mkv
Format                           : Matroska
File size                        : 1.64 GiB
Duration                         : 1h 31mn
Overall bit rate                 : 2 572 Kbps
Movie name                       : WILLY DeVILLE-LIVE-THE BERLIN CONCERTS 2002
Encoded date                     : UTC 2010-09-24 19:54:52
Writing application              : mkvmerge v4.2.0 ('No Talking') built on Jul 28 2010 18:38:23
Writing library                  : libebml v1.0.0 + libmatroska v1.0.0

Video
ID                               : 1
Format                           : AVC
Format/Info                      : Advanced Video Codec
Format profile                   : High@L4.1
Format settings, CABAC           : Yes
Format settings, ReFrames        : 10 frames
Muxing mode                      : Container profile=Unknown@4.1
Codec ID                         : V_MPEG4/ISO/AVC
Duration                         : 1h 31mn
Bit rate                         : 1 900 Kbps
Width                            : 960 pixels
Height                           : 720 pixels
Display aspect ratio             : 4:3
Frame rate                       : 25.000 fps
Color space                      : YUV
Chroma subsampling               : 4:2:0
Bit depth                        : 8 bits
Scan type                        : Progressive
Bits/(Pixel*Frame)               : 0.110
Stream size                      : 1.18 GiB (72%)
Writing library                  : x264 core 104 r1683 62997d6

Audio #1
ID                               : 2
Format                           : AC-3
Format/Info                      : Audio Coding 3
Mode extension                   : CM (complete main)
Codec ID                         : A_AC3
Duration                         : 1h 31mn
Bit rate mode                    : Constant
Bit rate                         : 448 Kbps
Channel(s)                       : 6 channels
Channel positions                : Front: L C R, Side: L R, LFE
Sampling rate                    : 48.0 KHz
Bit depth                        : 16 bits
Stream size                      : 292 MiB (17%)

Audio #2
ID                               : 3
Format                           : AC-3
Format/Info                      : Audio Coding 3
Mode extension                   : CM (complete main)
Codec ID                         : A_AC3
Duration                         : 1h 31mn
Bit rate mode                    : Constant
Bit rate                         : 224 Kbps
Channel(s)                       : 2 channels
Channel positions                : Front: L R
Sampling rate                    : 48.0 KHz
Bit depth                        : 16 bits
Stream size                      : 146 MiB (9%)

Menu
00:00:00.000                     : en:01 Loup Garou 
00:07:14.400                     : en:02 One Night Of Sin 
00:09:49.920                     : en:03 Broken Heart 
00:12:27.360                     : en:04 Running Through The Jungle 
00:16:07.680                     : en:05 Bamboo Road 
00:21:50.880                     : en:06 Lay Me Down Easy 
00:26:48.480                     : en:07 Carmelita 
00:31:08.160                     : en:08 Steady Drivin´Man 
00:37:23.040                     : en:09 Across The Borderline 
00:42:25.920                     : en:10 18 Hammers 
00:46:05.760                     : en:11 Cadillac Walk 
00:51:20.640                     : en:12 Can´t Do Without You 
00:55:51.360                     : en:13 Bad Boy 
00:59:34.560                     : en:14 Who´s Gonna Shoe Your Pretty Little Foot 
01:03:40.320                     : en:15 Heart And Soul 
01:08:14.880                     : en:16 Goin´Over The Hill 
01:11:32.160                     : en:17 Just Your Friends 
01:15:45.600                     : en:18 Spanish Stroll 
01:21:45.120                     : en:19 All By Myself 
01:25:15.840                     : en:20 Hey Joe 

Source                           : WILLY DeVILLE - THE BERLIN CONCERTS 2002 
                                   DVD-2
                                   WILLY DeVILLE - LIVE AT THE METROPOL